<svg width="30" height="30" fill="none" xmlns="http://www.w3.org/2000/svg"><path d="M15 30c8.284 0 15-6.716 15-15 0-8.284-6.716-15-15-15C6.716 0 0 6.716 0 15c0 8.284 6.716 15 15 15Z" fill="#fff"/><path d="M25.2 15.16c0-1.223-1.004-2.215-2.24-2.215-.61 0-1.148.23-1.542.62-1.524-1.08-3.64-1.79-5.97-1.878l1.022-4.73 3.316.69a1.589 1.589 0 0 0 1.596 1.507 1.59 1.59 0 0 0 1.595-1.577A1.59 1.59 0 0 0 21.382 6c-.628 0-1.166.354-1.417.886l-3.71-.78a.451.451 0 0 0-.305.053.431.431 0 0 0-.18.248l-1.128 5.28c-2.385.07-4.518.762-6.06 1.878a2.275 2.275 0 0 0-1.541-.62c-1.237 0-2.241.992-2.241 2.214 0 .904.538 1.666 1.327 2.02a4.098 4.098 0 0 0-.054.673c0 3.402 3.997 6.148 8.945 6.148 4.947 0 8.945-2.746 8.945-6.148 0-.23-.018-.443-.054-.655.735-.354 1.291-1.134 1.291-2.038ZM9.873 16.735a1.59 1.59 0 0 1 1.596-1.577 1.59 1.59 0 0 1 1.595 1.577 1.59 1.59 0 0 1-1.595 1.577 1.59 1.59 0 0 1-1.596-1.577Zm8.91 4.164C17.688 21.98 15.608 22.05 15 22.05c-.61 0-2.707-.088-3.782-1.151a.413.413 0 0 1 0-.585c.16-.16.43-.16.591 0 .681.673 2.151.921 3.209.921 1.058 0 2.51-.248 3.209-.921.161-.16.43-.16.591 0a.452.452 0 0 1-.036.585Zm-.287-2.587a1.59 1.59 0 0 1-1.596-1.577 1.59 1.59 0 0 1 1.596-1.577 1.59 1.59 0 0 1 1.595 1.577 1.59 1.59 0 0 1-1.595 1.577Z" fill="#264160"/></svg>